<?xml version="1.0" standalone="no"?><!DOCTYPE svg PUBLIC "-//W3C//DTD SVG 1.1//EN" "http://www.w3.org/Graphics/SVG/1.1/DTD/svg11.dtd"><svg t="1497673781881" class="icon" style="" viewBox="0 0 1024 1024" version="1.1" xmlns="http://www.w3.org/2000/svg" p-id="1419" xmlns:xlink="http://www.w3.org/1999/xlink" width="200" height="200"><defs><style type="text/css"></style></defs><path d="M512 696.32c-101.634048 0-184.32-82.685952-184.32-184.32 0-101.634048 82.685952-184.32 184.32-184.32 101.634048 0 184.32 82.685952 184.32 184.32 0 8.131584-0.536576 16.318464-1.596416 24.332288l-60.909568-8.047616c0.70656-5.354496 1.065984-10.83392 1.065984-16.283648 0-67.756032-55.123968-122.88-122.88-122.88-67.756032 0-122.88 55.123968-122.88 122.88 0 67.756032 55.123968 122.88 122.88 122.88 12.949504 0 25.690112-1.997824 37.866496-5.937152l18.914304 58.456064C550.483968 693.318656 531.380224 696.32 512 696.32z" p-id="1420" fill="#ffffff"></path><path d="M368.580608 969.157632l-0.454656-0.142336c-73.192448-22.907904-140.727296-63.872-195.306496-118.465536l-0.247808-0.247808 0.141312-0.320512c8.682496-19.647488 13.083648-40.578048 13.083648-62.211072 0-38.214656-14.078976-74.851328-39.642112-103.15776-25.381888-28.104704-59.979776-45.773824-97.422336-49.75104l-0.350208-0.036864-0.090112-0.340992C37.651456 594.357248 32.256 552.778752 32.256 510.903296c0-41.857024 5.39136-83.421184 16.023552-123.53536l0.090112-0.340992 0.350208-0.036864c37.444608-3.974144 72.046592-21.641216 97.430528-49.746944 25.566208-28.30848 39.646208-64.945152 39.646208-103.16288 0-21.644288-4.406272-42.585088-13.09696-62.241792l-0.141312-0.320512 0.247808-0.247808c54.46144-54.480896 121.844736-95.40096 194.864128-118.33344l0.454656-0.142336 0.175104 0.442368c11.20256 28.32896 30.388224 52.503552 55.48544 69.910528 25.686016 17.815552 55.835648 27.23328 87.189504 27.23328 31.353856 0 61.503488-9.416704 87.189504-27.23328 25.096192-17.406976 44.281856-41.581568 55.484416-69.910528l0.175104-0.442368 0.453632 0.142336c72.89344 22.892544 140.181504 63.719424 194.594816 118.065152l0.248832 0.248832-0.14336 0.321536c-8.767488 19.730432-13.213696 40.761344-13.213696 62.508032 0 38.288384 14.125056 74.976256 39.774208 103.30624 25.470976 28.132352 60.169216 45.765632 97.702912 49.649664l0.351232 0.036864 0.091136 0.342016c10.624 40.100864 16.011264 81.64864 16.011264 123.48928 0 41.857024-5.39136 83.419136-16.022528 123.533312l-0.091136 0.342016-0.351232 0.03584c-19.014656 1.970176-37.25824 7.410688-54.222848 16.172032-51.345408 26.520576-83.241984 78.932992-83.241984 136.782848 0 1.507328 0.021504 3.009536 0.065536 4.506624 0.577536 20.1472 4.99712 39.651328 13.134848 57.970688l0.14336 0.321536-0.248832 0.247808c-54.290432 54.219776-121.416704 94.992384-194.1248 117.907456l-0.453632 0.144384-0.176128-0.443392c-11.220992-28.292096-30.408704-52.431872-55.489536-69.810176-25.67168-17.78688-55.799808-27.189248-87.12704-27.189248-31.381504 0-61.553664 9.432064-87.254016 27.276288-25.111552 17.435648-44.296192 41.64608-55.479296 70.011904L368.580608 969.157632zM173.792256 850.0736c54.304768 54.239232 121.438208 94.971904 194.18624 117.822464 11.282432-28.362752 30.52544-52.573184 55.672832-70.034432 25.872384-17.964032 56.246272-27.45856 87.837696-27.45856 31.536128 0 61.865984 9.464832 87.709696 27.37152 25.116672 17.401856 44.362752 41.540608 55.683072 69.830656 72.266752-22.857728 138.988544-63.39584 193.006592-117.264384-8.101888-18.349056-12.502016-37.871616-13.080576-58.0352-0.044032-1.507328-0.065536-3.019776-0.065536-4.537344 0-58.233856 32.108544-110.995456 83.795968-137.693184 16.974848-8.766464 35.219456-14.230528 54.235136-16.242688 10.549248-39.921664 15.898624-81.282048 15.898624-122.930176 0-41.631744-5.34528-82.976768-15.88736-122.88512-37.650432-3.984384-72.443904-21.711872-98.003968-49.944576-25.819136-28.5184-40.039424-65.451008-40.039424-103.993344 0-21.773312 4.426752-42.832896 13.160448-62.60224-54.140928-53.994496-121.024512-94.58688-193.475584-117.42208-11.29984 28.326912-30.544896 52.501504-55.675904 69.932032-25.858048 17.93536-56.210432 27.415552-87.774208 27.415552s-61.915136-9.480192-87.773184-27.415552c-25.132032-17.431552-44.376064-41.606144-55.677952-69.932032-72.577024 22.87616-139.556864 63.561728-193.74592 117.690368 8.653824 19.693568 13.042688 40.665088 13.042688 62.333952 0 38.47168-14.174208 75.352064-39.9104 103.84896-25.474048 28.205056-60.171264 45.96736-97.731584 50.040832C38.628352 427.895808 33.28 469.252096 33.28 510.903296c0 41.669632 5.352448 83.040256 15.911936 122.97728 37.558272 4.076544 72.252416 21.839872 97.723392 50.044928 25.734144 28.494848 39.907328 65.375232 39.907328 103.84384C186.821632 809.428992 182.437888 830.389248 173.792256 850.0736z" p-id="1421" fill="#ffffff"></path><path d="M368.282624 999.252992c-3.043328 0-6.132736-0.454656-9.18016-1.408-77.82912-24.358912-149.632-67.907584-207.64672-125.937664-8.968192-8.971264-11.500544-22.532096-6.373376-34.136064 6.971392-15.775744 10.50624-32.59904 10.50624-50.000896 0-30.721024-11.312128-60.166144-31.853568-82.912256-20.388864-22.577152-48.15872-36.76672-78.194688-39.957504-12.663808-1.344512-23.184384-10.363904-26.448896-22.674432C7.7824 599.574528 2.048 555.390976 2.048 510.903296c0-44.469248 5.730304-88.636416 17.032192-131.274752 3.263488-12.312576 13.786112-21.334016 26.452992-22.677504 30.036992-3.187712 57.80992-17.37728 78.200832-39.954432 20.543488-22.746112 31.85664-52.192256 31.85664-82.915328 0-17.410048-3.538944-34.241536-10.517504-50.026496-5.13024-11.603968-2.599936-25.167872 6.370304-34.14016 57.889792-57.911296 129.53088-101.410816 207.177728-125.797376 15.367168-4.82304 31.850496 3.035136 37.772288 18.01216 9.003008 22.766592 24.428544 42.19904 44.609536 56.19712 20.605952 14.291968 44.802048 21.846016 69.972992 21.846016 25.171968 0 49.368064-7.554048 69.972992-21.846016 20.182016-13.99808 35.606528-33.430528 44.608512-56.196096 5.922816-14.978048 22.404096-22.839296 37.773312-18.01216 77.510656 24.343552 149.052416 67.744768 206.889984 125.51168 8.997888 8.986624 11.528192 22.58944 6.36416 34.210816-7.041024 15.843328-10.610688 32.74752-10.610688 50.240512 0 30.780416 11.350016 60.26752 31.960064 83.03104 20.45952 22.598656 48.310272 36.760576 78.41792 39.876608 12.699648 1.313792 23.264256 10.346496 26.533888 22.689792C1014.177792 422.30272 1019.904 466.453504 1019.904 510.903296c0 44.468224-5.730304 88.634368-17.031168 131.272704-3.270656 12.340224-13.832192 21.37088-26.529792 22.68672-15.248384 1.579008-29.874176 5.941248-43.47392 12.96384-41.26208 21.312512-66.894848 63.440896-66.894848 109.942784 0 1.212416 0.018432 2.420736 0.053248 3.62496 0.464896 16.211968 4.01408 31.88224 10.5472 46.589952 5.161984 11.621376 2.630656 25.222144-6.367232 34.20672-57.706496 57.632768-129.076224 100.975616-206.391296 125.343744-15.356928 4.84352-31.85152-3.002368-37.789696-17.973248-9.018368-22.736896-24.444928-42.141696-44.613632-56.116224-20.594688-14.270464-44.773376-21.812224-69.922816-21.812224-25.194496 0-49.408 7.56736-70.025216 21.880832-20.194304 14.021632-35.617792 33.481728-44.60544 56.278016C392.122368 991.807488 380.59008 999.252992 368.282624 999.252992zM208.982016 841.945088c41.895936 38.397952 90.919936 68.63872 143.744 88.705024 13.472768-22.71744 31.693824-42.323968 53.696512-57.601024 30.95552-21.492736 67.28704-32.854016 105.066496-32.854016 37.71392 0 73.993216 11.32544 104.91392 32.748544 21.962752 15.217664 40.168448 34.748416 53.654528 57.38496 52.373504-20.016128 101.008384-50.05312 142.609408-88.11008-4.872192-15.838208-7.573504-32.258048-8.05376-49.045504-0.052224-1.779712-0.078848-3.603456-0.078848-5.402624 0-69.581824 38.372352-132.627456 100.141056-164.532224 13.832192-7.143424 28.366848-12.454912 43.416576-15.879168 6.887424-31.5392 10.372096-63.898624 10.372096-96.45568 0-32.54272-3.4816-64.89088-10.364928-96.41984-36.6848-8.358912-70.085632-27.831296-95.712256-56.13568-30.85824-34.08384-47.852544-78.216192-47.852544-124.26752 0-18.679808 2.732032-36.926464 8.1408-54.486016-41.715712-38.16448-90.500096-68.258816-143.034368-88.276992-13.479936 22.675456-31.693824 42.24512-53.675008 57.49248-30.938112 21.459968-67.243008 32.801792-104.989696 32.801792-37.746688 0-74.051584-11.342848-104.989696-32.801792-21.983232-15.24736-40.195072-34.814976-53.675008-57.49248-52.666368 20.066304-101.5552 50.258944-143.338496 88.553472 5.354496 17.476608 8.057856 35.631104 8.057856 54.209536 0 45.966336-16.940032 90.037248-47.700992 124.096512-25.541632 28.280832-58.855424 47.780864-95.455232 56.209408C66.976768 445.944832 63.488 478.32576 63.488 510.903296c0 32.596992 3.49184 64.989184 10.395648 96.5632 36.596736 8.430592 69.909504 27.931648 95.449088 56.21248 30.757888 34.05824 47.695872 78.127104 47.695872 124.091392C217.029632 806.336512 214.329344 824.47872 208.982016 841.945088z" p-id="1422" fill="#ffffff"></path><path d="M655.52896 525.293568" p-id="1423" fill="#ffffff"></path><path d="M552.945664 653.044736" p-id="1424" fill="#ffffff"></path></svg>