<?xml version="1.0" standalone="no"?><!DOCTYPE svg PUBLIC "-//W3C//DTD SVG 1.1//EN" "http://www.w3.org/Graphics/SVG/1.1/DTD/svg11.dtd"><svg t="1488782526547" class="icon" style="" viewBox="0 0 1024 1024" version="1.1" xmlns="http://www.w3.org/2000/svg" p-id="1441" xmlns:xlink="http://www.w3.org/1999/xlink" width="200" height="200"><defs><style type="text/css"></style></defs><path d="M681.30908 114.579595l0 59.295478c164.715459 51.597145 284.241716 205.376531 284.241716 387.105478 0 224.01503-181.600011 405.616064-405.615041 405.616064-224.016053 0-405.616064-181.600011-405.616064-405.616064 0-181.727924 119.526257-335.508333 284.241716-387.104455L438.561407 114.579595C241.816464 167.976736 96.91426 347.331613 96.91426 560.979528c0 255.718079 207.30137 463.019449 463.020472 463.019449 255.718079 0 463.019449-207.30137 463.019449-463.019449C1022.955204 347.331613 878.054023 167.975712 681.30908 114.579595z" p-id="1442"></path><path d="M533.385053 3.78521l53.101405 0 0 408.474159-53.101405 0 0-408.474159Z" p-id="1443"></path></svg>